inDegrees=yes
name=ik_S53_A08_T02
DataType=double
version=3
OpenSimVersion=4.3-2021-08-27-4bc7ad9
endheader
time	pelvis_tilt	pelvis_list	pelvis_rotation	pelvis_tx	pelvis_ty	pelvis_tz	hip_flexion_r	hip_adduction_r	hip_rotation_r	knee_angle_r	knee_angle_r_beta	ankle_angle_r	subtalar_angle_r	mtp_angle_r	hip_flexion_l	hip_adduction_l	hip_rotation_l	knee_angle_l	knee_angle_l_beta	ankle_angle_l	subtalar_angle_l	mtp_angle_l	lumbar_extension	lumbar_bending	lumbar_rotation	arm_flex_r	arm_add_r	arm_rot_r	elbow_flex_r	pro_sup_r	wrist_flex_r	wrist_dev_r	arm_flex_l	arm_add_l	arm_rot_l	elbow_flex_l	pro_sup_l	wrist_flex_l	wrist_dev_l
0	0	0	0	0	0.9399999999999999	0	0	0	0	0	0	0	0	0	0	0	0	0	0	0	0	0	0	0	0	0	0	0	0	89.99999999963507	0	0	0	0	0	0	89.99999999869995	0	0
0.02	-5.342681340044128	0.2030203183395326	19.61138069160172	0	0.9399999999999999	0	3.699459141085847	-1.721835185981064	-1.244389823194889	5.729107777831007	0.09999179392476687	0	0	0	3.699459141085847	-1.721835185981064	-1.244389823194889	5.729107777831007	0.09999179392476687	0	0	0	-3.062488274636046	-2.217897050463903	1.588839995543402	14.51312332986489	-2.254338419094411	-1.035809452031069	49.06849332824685	129.2186704975494	0	0	14.88807522475086	-6.294753051319848	-2.390182218969161	48.13000132302041	126.5580554865109	0	0
0.04	-5.016686621610927	-0.0121001999561556	19.62644150648004	0	0.9399999999999999	0	44.15320663758464	-10.72835002840614	-11.0254084745301	55.23344279918357	0.9640054340577064	0	0	0	44.15320663758464	-10.72835002840614	-11.0254084745301	55.23344279918357	0.9640054340577064	0	0	0	-3.290471150309136	-1.889198343743008	1.58344965320899	14.50545624057325	-2.289629234092521	-1.004181754709635	49.06790910195303	129.1378562621623	0	0	14.90365376899691	-6.266815252873855	-2.392088523273066	48.11956668577046	126.5843533222498	0	0
0.06	-5.01411252859935	0.0002409344606962937	19.62977155276837	0	0.9399999999999999	0	44.15383199267458	-10.72542657988991	-11.02319829219821	55.23333818681613	0.9640036082274562	0	0	0	44.15383199267458	-10.72542657988991	-11.02319829219821	55.23333818681613	0.9640036082274562	0	0	0	-3.284590410567393	-1.877085514415857	1.588374975045046	14.47963790552155	-2.300699873508384	-1.014172557159892	49.04476924048592	129.1112828100788	0	0	14.91477280411875	-6.256015721242427	-2.375621091547396	48.1052640316174	126.5761577393923	0	0
0.08	-5.010262117184468	0.001374376002281843	19.62440272435614	0	0.9399999999999999	0	44.15481167295612	-10.72269154764527	-11.02064859975024	55.23315514130363	0.9640004134805823	0	0	0	44.15481167295612	-10.72269154764527	-11.02064859975024	55.23315514130363	0.9640004134805823	0	0	0	-3.281761048710794	-1.874705607700369	1.591192934663832	14.4999600779528	-2.337405432585684	-1.013960232775201	49.0523666396565	129.0565773696337	0	0	14.89955056419623	-6.268797723821018	-2.376629209266775	48.11586810619721	126.5514026980089	0	0
0.1	-5.004281385478555	0.006726951330840935	19.62022611843709	0	0.9399999999999999	0	44.15559469128307	-10.71999948026713	-11.01837091370629	55.23301368999689	0.9639979446895484	0	0	0	44.15559469128307	-10.71999948026713	-11.01837091370629	55.23301368999689	0.9639979446895484	0	0	0	-3.275233068577228	-1.870096729427376	1.601409888741291	14.48342324959676	-2.355295743885932	-1.001606414185275	49.01796438325925	129.0088104749222	0	0	14.90921543764449	-6.247004944679972	-2.326227350095179	48.09034975192289	126.5512560014283	0	0
0.12	-5.005528919340572	0.0130770894765516	19.63141529911806	0	0.9399999999999999	0	44.15592551287209	-10.71835216107086	-11.01716197299259	55.23295892561816	0.9639969888708266	0	0	0	44.15592551287209	-10.71835216107086	-11.01716197299259	55.23295892561816	0.9639969888708266	0	0	0	-3.274636228906362	-1.862865451577448	1.602011305913817	14.52076463831275	-2.340314297663228	-1.004730874214277	48.97341859233224	129.0094379952156	0	0	14.90308016308471	-6.233683504729751	-2.328506020140358	48.06754869141167	126.5611924999077	0	0
0.14	-5.009133898415506	0.01093501676834082	19.6326293073792	0	0.9399999999999999	0	44.15747408205014	-10.71487077080498	-11.01357241875967	55.23266019233654	0.9639917749914771	0	0	0	44.15747408205014	-10.71487077080498	-11.01357241875967	55.23266019233654	0.9639917749914771	0	0	0	-3.280631338542261	-1.859222602958454	1.604056421073022	14.52387293925587	-2.346790372848745	-0.9901245372746634	48.99489182966568	128.9669590810683	0	0	14.92015632542383	-6.242169312577903	-2.313381583667727	48.09800155549908	126.5258223162999	0	0
0.16	-5.004303359859148	0.01733604850998153	19.63411743358896	0	0.9399999999999999	0	44.15726068955798	-10.71450174445865	-11.01363337558534	55.23271069223949	0.9639926563810556	0	0	0	44.15726068955798	-10.71450174445865	-11.01363337558534	55.23271069223949	0.9639926563810556	0	0	0	-3.273590109765471	-1.85562801330094	1.604331663409275	14.5260047383192	-2.345904063723768	-0.982948668605051	48.97597239706695	128.9801393427729	0	0	14.92580656118962	-6.242932284243031	-2.301549196978314	48.0795463367138	126.5392612489761	0	0
0.18	-4.990139586210989	0.02438682007999435	19.6566439258993	0	0.9399999999999999	0	44.15757314123476	-10.71284059728652	-11.01243889797685	55.23266019102325	0.9639917749685559	0	0	0	44.15757314123476	-10.71284059728652	-11.01243889797685	55.23266019102325	0.9639917749685559	0	0	0	-3.258187936766868	-1.853168509098378	1.607376868953273	14.54145369074116	-2.339670884303418	-0.9446137817120926	48.91959276177327	128.9665710235076	0	0	14.91527474090095	-6.205309162209194	-2.295288728589979	48.03516090676258	126.5456869801395	0	0
0.2	-4.983461943719768	0.02841262033345414	19.66538988233122	0	0.9399999999999999	0	44.15806564542653	-10.71064506084284	-11.01075140819903	55.23257671180396	0.9639903179813223	0	0	0	44.15806564542653	-10.71064506084284	-11.01075140819903	55.23257671180396	0.9639903179813223	0	0	0	-3.251097492897144	-1.850281783438937	1.607036367578818	14.56026486011631	-2.34377636261124	-0.9230320956849293	48.8952239424852	128.9476703735932	0	0	14.90046833894622	-6.19892974148519	-2.288807125927359	48.0258787793011	126.5375153321069	0	0
0.22	-4.978194230185709	0.03580685057330801	19.67438360665971	0	0.9399999999999999	0	44.15724076110043	-10.71174720648826	-11.01230846921404	55.23274255224062	0.963993212442975	5.38806921148701e-36	0	0	44.15724076110043	-10.71174720648826	-11.01230846921404	55.23274255224062	0.963993212442975	5.38806921148701e-36	0	0	-3.242533211184251	-1.84739672766912	1.601014509866719	14.56447614465772	-2.34549442017732	-0.9052074265110556	48.81396972923088	129.0131580110177	0	0	14.96223325621146	-6.199349805692448	-2.31562430548069	47.97683610818909	126.5623963544545	0	0
0.24	-4.979685274634935	0.03333709288627478	19.69702944093109	0	0.9399999999999999	0	44.15747788537168	-10.71034200964645	-11.01132896698226	55.23270562481865	0.9639925679378774	0	0	0	44.15747788537168	-10.71034200964645	-11.01132896698226	55.23270562481865	0.9639925679378774	0	0	0	-3.244992779120325	-1.848735566524455	1.602645472710955	14.63043645810308	-2.321019907369946	-0.8947197987031147	48.74031042271214	129.0256149472685	0	0	15.00659496184787	-6.191375155109641	-2.287949629489362	47.94296389161043	126.532315960878	0	0
0.26	-4.948900908240313	0.04507980682496322	19.72683244644615	0	0.9399999999999999	0	44.15770969240596	-10.70883810706212	-11.01029134613111	55.23267119209165	0.9639919669734207	0	0	0	44.15770969240596	-10.70883810706212	-11.01029134613111	55.23267119209165	0.9639919669734207	0	0	0	-3.212242705292349	-1.848983990907808	1.626227752300927	14.57508706074541	-2.336965411157633	-0.9515541762109558	48.69356117365612	129.0139640662763	0	0	14.98159504291208	-6.189236264253963	-2.192758767089761	47.91142054846723	126.4426902435196	0	0
0.28	-4.937727304235397	0.05104207554293592	19.72809279221233	0	0.9399999999999999	0	44.15807688884266	-10.70734429697068	-11.00910116481476	55.23260706821716	0.9639908478006817	0	0	0	44.15807688884266	-10.70734429697068	-11.00910116481476	55.23260706821716	0.9639908478006817	0	0	0	-3.200110835806895	-1.846432910487687	1.630780396131897	14.54814202540678	-2.339099323825483	-0.937536756642974	48.67203328616411	129.029700334758	0	0	15.00211632376531	-6.199113226932486	-2.136010905184003	47.91978828313867	126.3905185245236	0	0
0.3	-4.886567676245538	0.06946280802134508	19.77140281138952	0	0.9399999999999999	0	44.15931751699168	-10.70395968709032	-11.00590621612666	55.23237483000483	0.9639867944792276	0	0	0	44.15931751699168	-10.70395968709032	-11.00590621612666	55.23237483000483	0.9639867944792276	0	0	0	-3.147243991198706	-1.843507423483534	1.643304554519424	14.48312169208043	-2.340968922024554	-0.9685709436966038	48.59648315098271	129.0360373435077	0	0	14.92457855563486	-6.236348085987853	-2.026406778493026	47.95864489275954	126.2095778489377	0	0
0.32	-4.863377426076654	0.07023739816459729	19.81660566661758	0	0.9399999999999999	0	44.1614321564421	-10.69849200027504	-11.00060255797364	55.23197542517543	0.9639798235499063	0	0	0	44.1614321564421	-10.69849200027504	-11.00060255797364	55.23197542517543	0.9639798235499063	0	0	0	-3.127669220083841	-1.843363781346918	1.624851197890745	14.44251283165304	-2.325759163869227	-0.991548054427331	48.52371536047247	129.1121301456347	0	0	14.89545837110258	-6.295302768151094	-1.946067839082213	48.0648977287119	125.9208439446719	0	0
